<?xml version="1.0" standalone="no"?>
<!DOCTYPE svg PUBLIC "-//W3C//DTD SVG 20010904//EN"
 "http://www.w3.org/TR/2001/REC-SVG-20010904/DTD/svg10.dtd">
<svg version="1.0" xmlns="http://www.w3.org/2000/svg"
 width="600.000000pt" height="400.000000pt" viewBox="0 0 600.000000 400.000000"
 preserveAspectRatio="xMidYMid meet">

<g transform="translate(0.000000,400.000000) scale(0.100000,-0.100000)"
fill="#000000" stroke="none">
<path d="M0 2000 l0 -2000 3000 0 3000 0 0 2000 0 2000 -3000 0 -3000 0 0
-2000z m2990 1710 c0 -5 6 -7 14 -4 8 3 24 0 36 -6 32 -17 12 -32 -46 -34 -81
-2 -162 -68 -104 -83 15 -4 20 -14 20 -37 0 -56 -10 -73 -42 -80 -17 -3 -28
-9 -25 -12 10 -11 77 -13 77 -3 0 5 15 9 33 9 28 0 36 -5 50 -35 18 -38 46
-46 67 -20 7 9 20 13 29 10 9 -2 22 -1 30 4 20 13 41 2 41 -20 0 -10 6 -19 13
-19 7 0 21 -22 31 -50 10 -27 22 -50 27 -50 5 0 9 -19 9 -42 0 -32 -3 -39 -10
-28 -8 12 -10 11 -10 -7 0 -14 -6 -23 -15 -23 -8 0 -15 5 -15 12 0 7 -5 6 -12
-4 -22 -27 -46 -29 -51 -5 -2 12 -4 4 -4 -18 0 -62 -25 -195 -38 -195 -6 0
-27 -14 -47 -30 -33 -27 -39 -29 -65 -18 -15 7 -41 23 -56 35 -16 13 -39 23
-51 23 -38 0 -117 -28 -140 -49 -23 -22 -76 -19 -76 4 0 8 -9 17 -20 20 -21 7
-28 25 -10 25 6 0 10 7 10 15 0 8 9 15 19 15 11 0 26 7 35 15 8 9 22 12 32 8
13 -5 16 -3 11 10 -5 12 -1 17 14 17 16 0 18 5 13 25 -3 14 -1 63 6 108 10 69
16 86 40 107 28 25 45 84 25 85 -19 1 -35 16 -35 34 0 9 -15 25 -32 34 -73 38
-123 83 -132 120 -13 51 3 101 33 105 32 5 41 -12 41 -84 0 -47 4 -63 16 -68
24 -9 34 -7 34 7 0 27 26 67 50 77 14 6 32 23 41 38 23 41 139 93 139 62z
m-347 -386 c22 -22 37 -46 37 -60 0 -13 5 -24 11 -24 13 0 7 -72 -12 -142
l-12 -48 -59 0 -59 0 6 88 c8 129 16 182 26 182 5 0 9 9 9 20 0 28 10 25 53
-16z m2189 -188 l27 -55 -65 -7 c-36 -3 -69 -3 -74 2 -15 16 -29 84 -18 84 6
0 6 6 -2 15 -11 13 -5 15 47 15 l59 0 26 -54z m-1514 32 c15 -15 16 -38 2 -38
-5 0 -10 9 -10 19 0 11 -8 22 -17 24 -14 4 -14 5 -2 6 8 0 20 -4 27 -11z m83
-82 c32 -7 46 -37 55 -115 6 -57 5 -63 -20 -87 -14 -15 -26 -31 -26 -36 0 -5
-7 -16 -14 -24 -22 -21 -96 -8 -96 17 0 10 -9 23 -20 29 -21 11 -29 70 -10 70
6 0 10 6 10 14 0 7 6 19 14 25 8 7 17 24 20 39 14 56 28 83 45 78 9 -2 28 -7
42 -10z m1541 -181 l27 -65 -78 0 -78 0 -23 53 c-12 28 -24 58 -27 65 -4 9 14
12 73 12 l79 0 27 -65z m99 -222 c45 -103 49 -93 -42 -93 l-80 0 -30 65 c-16
35 -29 67 -29 70 0 3 36 5 80 5 l81 0 20 -47z m-49 -172 l16 -40 63 -3 63 -3
18 -47 18 -48 -60 0 c-33 0 -60 -4 -60 -10 0 -17 -34 -50 -52 -50 -22 0 -22
-7 -3 -53 8 -20 15 -41 15 -47 0 -6 -26 -10 -61 -10 l-61 0 -21 50 -21 50 -52
0 c-29 0 -56 5 -59 10 -4 6 -3 9 2 8 4 -1 46 2 92 6 57 5 80 11 70 17 -10 6
-6 9 16 10 24 1 25 3 8 6 -15 3 -23 12 -23 24 0 10 -7 19 -15 19 -16 0 -10 26
11 48 18 17 24 15 24 -8 0 -13 7 -20 20 -20 11 0 20 7 20 15 0 20 16 19 24 -1
4 -9 9 -15 11 -12 3 3 -4 31 -15 63 -23 67 -23 65 -12 65 5 0 16 -18 24 -39z
m-290 -199 c-10 -7 -8 -18 7 -53 32 -69 32 -69 -69 -69 l-90 0 -25 56 c-14 31
-22 60 -19 65 3 5 51 9 107 9 56 0 96 -4 89 -8z m-325 -59 c28 -70 24 -74 -77
-71 l-75 3 -22 55 c-16 40 -18 57 -10 62 7 4 46 8 87 8 l75 0 22 -57z m-318
-9 c12 -32 19 -59 16 -62 -3 -3 -40 -7 -83 -10 l-77 -4 -21 61 c-12 33 -19 63
-16 66 3 3 40 5 82 5 l77 0 22 -56z m-305 -10 c10 -31 16 -58 13 -60 -3 -3
-36 -8 -75 -11 l-71 -6 -14 34 c-7 19 -17 46 -20 61 -6 24 -4 27 25 31 18 2
54 5 79 5 l45 2 18 -56z m-295 -5 c7 -23 15 -47 18 -55 4 -11 -10 -14 -71 -14
-84 0 -84 0 -101 78 l-7 32 75 0 74 0 12 -41z m-274 -11 c4 -18 9 -41 11 -50
4 -14 -1 -18 -25 -18 -35 0 -35 -3 -20 56 13 52 25 56 34 12z m215 -277 c0
-25 -4 -29 -25 -27 -14 0 -23 6 -21 11 2 6 10 9 17 7 8 -2 11 0 7 4 -7 6 8 34
18 34 2 0 4 -13 4 -29z m100 17 c0 -5 9 -3 19 4 15 9 23 9 34 -1 12 -9 16 -9
20 1 4 10 8 10 16 -2 7 -10 11 -11 11 -2 0 6 5 12 10 12 15 0 12 -24 -6 -46
-11 -14 -17 -16 -21 -6 -4 10 -8 9 -19 -5 -8 -11 -13 -13 -14 -5 0 10 -5 10
-21 1 -17 -8 -23 -8 -30 2 -6 10 -11 10 -25 -2 -19 -15 -19 -16 2 36 4 11 2
13 -10 9 -8 -3 -18 -14 -21 -25 -4 -10 -11 -19 -16 -19 -6 0 -6 7 -1 18 5 9 7
23 5 30 -4 9 5 12 31 10 20 -1 36 -6 36 -10z m-294 -10 c-12 -40 -17 -50 -22
-46 -5 6 13 58 20 58 3 0 4 -6 2 -12z m132 5 c-9 -2 -19 -11 -22 -20 -4 -11
-2 -14 9 -9 8 3 15 1 15 -3 0 -14 -33 -23 -40 -10 -6 8 -13 8 -29 0 -17 -10
-22 -9 -27 4 -10 26 13 42 63 42 27 0 41 -2 31 -4z m851 -128 c49 -7 78 -25
67 -43 -7 -13 149 -22 409 -24 l220 -2 -150 -6 c-82 -4 -215 -8 -294 -9 -79 0
-142 -3 -139 -6 2 -3 16 -6 30 -7 18 -2 24 -7 21 -18 -4 -11 -1 -11 10 3 8 9
19 17 25 17 12 0 26 -55 17 -70 -8 -13 -35 -13 -35 0 0 6 -6 5 -14 -2 -8 -7
-10 -14 -5 -16 5 -2 9 -11 9 -20 0 -9 17 -26 37 -37 37 -20 37 -20 34 -81 l-2
-61 53 -6 c29 -4 85 -7 123 -7 39 0 107 -3 153 -7 130 -10 76 -24 -88 -22
-214 2 -230 1 -230 -15 0 -8 10 -16 23 -19 22 -4 22 -4 -3 -15 -14 -6 -19 -11
-12 -11 25 -2 42 -29 42 -69 0 -21 3 -67 6 -101 6 -48 10 -61 21 -56 9 3 13 0
10 -7 -3 -10 29 -16 121 -23 92 -7 127 -14 130 -24 4 -12 -18 -13 -137 -8
l-142 6 3 -22 c2 -12 13 -26 26 -32 26 -11 30 -60 8 -90 -8 -11 -12 -25 -9
-32 3 -8 -3 -13 -18 -13 -24 -1 -24 -1 -4 -16 19 -14 19 -16 3 -25 -10 -6 -18
-14 -18 -19 0 -5 8 -11 18 -13 13 -4 11 -5 -5 -6 -28 -1 -30 -27 -3 -36 11 -4
18 -10 15 -15 -3 -4 34 -11 82 -15 100 -7 113 -10 113 -25 0 -6 -29 -11 -67
-12 -38 0 -52 -3 -33 -5 145 -14 225 -25 239 -33 9 -6 11 -10 4 -10 -7 0 -13
-10 -13 -22 1 -13 -1 -42 -3 -65 -4 -41 -3 -43 27 -48 17 -3 54 -9 81 -15 49
-9 48 -9 -22 -6 -78 4 -89 0 -71 -21 9 -11 7 -12 -7 -7 -9 4 -20 2 -24 -4 -4
-7 -43 -17 -86 -22 -44 -6 -106 -18 -137 -26 -67 -16 -378 -19 -343 -3 18 8
17 9 -5 6 -14 -3 -29 -5 -35 -7 -5 -1 -23 -2 -39 -1 -24 1 -27 3 -16 16 7 8
18 15 24 15 6 0 16 10 21 22 6 13 21 28 35 35 14 7 21 13 16 13 -6 0 -5 5 2
12 7 7 12 21 12 33 0 15 -4 13 -16 -12 -9 -18 -24 -35 -34 -38 -10 -3 -21 -12
-24 -20 -3 -9 -20 -15 -43 -16 -21 0 -32 -3 -25 -6 24 -10 12 -25 -15 -18 -31
7 -55 25 -35 25 7 0 12 7 12 15 0 11 12 15 43 16 l42 1 -33 9 c-31 9 -32 11
-17 32 8 12 15 30 15 40 0 10 10 22 23 27 l22 9 -22 7 c-32 9 -28 21 12 35 19
7 35 18 35 24 0 5 9 16 20 23 11 7 20 23 20 37 0 24 -1 24 -35 -14 -27 -30
-40 -37 -60 -33 -28 5 -30 7 -39 43 -5 23 -2 28 22 34 15 4 22 9 16 11 -22 9
-366 -85 -403 -109 -47 -31 -57 -31 -53 -1 3 20 -2 25 -28 31 -42 8 -19 23 35
23 63 0 366 62 362 74 -5 15 -79 36 -162 46 -59 7 -50 8 60 5 72 -1 143 -8
158 -14 16 -6 26 -7 22 -2 -12 21 -122 33 -269 29 -165 -4 -168 -5 -225 -70
-27 -30 -31 -41 -22 -52 18 -21 -15 -36 -77 -36 -55 0 -244 -31 -336 -55 -41
-11 -63 -12 -70 -5 -5 5 -21 10 -36 10 -14 0 -32 5 -40 10 -18 12 92 11 111
-1 6 -3 23 0 38 7 14 8 35 14 46 14 32 0 156 35 205 57 25 11 55 30 67 42 12
11 28 21 36 21 8 0 22 10 33 21 19 21 19 21 -11 16 -16 -3 -61 -9 -100 -13
-38 -4 -65 -8 -60 -9 6 -2 22 -6 38 -9 15 -4 27 -11 27 -17 0 -6 -5 -7 -12 -3
-22 14 -194 5 -283 -14 -146 -33 -154 -33 -75 -7 41 13 84 25 95 26 46 2 -34
16 -133 23 -56 4 -114 11 -129 16 -25 7 -23 8 17 9 25 1 115 -4 200 -10 144
-10 163 -10 265 10 61 12 166 26 235 32 69 6 140 13 158 15 35 5 43 20 15 27
-14 4 -12 5 5 6 14 1 22 7 22 20 0 24 -29 31 -77 21 -45 -11 -47 -9 -27 16 8
10 13 13 9 7 -3 -7 -1 -13 4 -13 17 0 13 18 -5 28 -12 7 -23 2 -42 -17 l-25
-25 -9 23 c-5 15 -13 21 -24 17 -9 -3 -12 -2 -8 5 3 6 16 8 28 5 20 -5 20 -4
-3 15 -13 10 -36 19 -51 19 -27 0 -67 40 -53 54 13 12 22 5 16 -11 -6 -19 -5
-18 14 8 11 13 6 15 -30 17 -243 10 -615 36 -627 44 -10 6 29 7 105 4 334 -15
592 -19 611 -8 10 6 13 12 7 12 -23 0 -14 15 17 28 17 8 29 20 28 27 -2 7 11
26 28 42 44 43 50 63 18 63 -17 0 -28 7 -31 20 -3 11 -10 20 -17 20 -18 0 -38
38 -23 43 35 13 -98 27 -343 36 -151 6 -285 11 -298 11 -13 0 -21 4 -18 8 3 5
131 69 285 143 l280 134 -247 5 c-136 3 -242 8 -236 12 6 4 132 8 280 10 395
3 454 6 447 24 -3 8 3 21 13 29 26 20 34 18 34 -7 l0 -22 16 22 c23 33 50 28
46 -9 -1 -4 10 -6 23 -5 14 0 25 7 25 14 0 6 9 12 20 12 11 0 20 5 20 10 0 6
9 10 20 10 12 0 20 7 20 17 0 14 3 14 19 -4 13 -13 39 -24 70 -28z m-1009 -99
c0 -3 -11 -16 -24 -30 l-23 -26 1 30 c1 24 5 30 24 30 12 0 22 -2 22 -4z m40
-25 c0 -25 -4 -29 -25 -27 -30 1 -30 1 -7 31 23 32 32 31 32 -4z m70 17 c0 -4
-4 -10 -10 -13 -5 -3 -10 -16 -10 -28 0 -16 -3 -19 -9 -8 -5 7 -14 10 -20 7
-13 -9 -14 9 -2 33 9 16 51 24 51 9z m65 2 c-3 -5 -13 -10 -21 -10 -8 0 -12
-4 -9 -10 3 -5 0 -10 -7 -11 -10 0 -10 -2 0 -6 18 -7 14 -23 -6 -23 -29 0 -33
10 -16 41 10 20 22 29 40 29 14 0 22 -4 19 -10z m1195 -1 c0 -5 -8 -9 -17 -9
-15 0 -16 -2 -3 -10 13 -8 12 -10 -4 -10 -20 0 -20 0 0 -15 18 -13 17 -14 -18
-15 -36 0 -37 1 -28 25 7 20 6 25 -5 25 -8 0 -15 -9 -15 -20 0 -11 -7 -23 -15
-27 -23 -8 -28 2 -15 26 7 14 7 21 0 21 -5 0 -10 4 -10 10 0 5 29 9 65 9 36
-1 65 -5 65 -10z m-1460 -307 c0 -23 -19 -42 -42 -42 -21 0 -21 1 -6 35 13 29
48 34 48 7z m30 -1 c-5 -11 -10 -23 -10 -28 1 -4 8 4 16 20 15 27 54 38 54 15
-1 -25 -26 -45 -57 -44 -18 0 -33 1 -33 2 0 15 22 54 30 54 7 0 8 -6 0 -19z
m125 9 c-3 -5 -13 -10 -21 -10 -8 0 -12 -4 -9 -10 3 -5 0 -10 -7 -11 -10 0
-10 -2 0 -6 18 -7 14 -23 -6 -23 -27 0 -31 8 -19 41 9 23 18 29 40 29 16 0 26
-4 22 -10z m53 -8 c2 -8 -2 -12 -13 -10 -10 2 -20 -3 -22 -10 -3 -7 1 -10 11
-6 9 3 16 2 16 -4 0 -10 -23 -22 -41 -22 -13 0 -11 44 3 58 15 15 40 12 46 -6z
m122 -2 c7 -10 10 -11 10 -2 0 7 13 12 30 12 35 0 34 2 14 -39 -12 -24 -19
-29 -29 -21 -10 8 -14 7 -18 -2 -4 -8 -8 -9 -14 -3 -4 6 -19 10 -33 10 -21 0
-25 4 -23 25 3 24 2 24 -12 6 -8 -11 -15 -23 -15 -28 0 -4 -7 -8 -15 -8 -12 0
-13 4 -5 19 5 11 7 27 4 36 -6 13 1 15 45 13 32 -2 56 -9 61 -18z m195 -250
c3 -5 1 -10 -4 -10 -6 0 -11 5 -11 10 0 6 2 10 4 10 3 0 8 -4 11 -10z m58 -7
c-7 -2 -19 -2 -25 0 -7 3 -2 5 12 5 14 0 19 -2 13 -5z m-678 -34 c4 -6 0 -9
-11 -7 -11 2 -20 -4 -22 -15 -3 -13 2 -16 20 -13 13 3 25 5 28 6 3 2 8 2 12 1
4 0 5 6 2 14 -4 9 0 15 10 15 17 0 21 -26 7 -49 -6 -9 -10 -10 -16 -2 -5 9
-10 9 -21 0 -11 -9 -14 -8 -14 2 0 10 -3 10 -11 2 -13 -13 -39 -6 -39 10 0 13
30 47 41 47 4 0 11 -5 14 -11z m105 -10 c0 -8 5 -7 16 2 13 10 17 10 25 -2 6
-10 9 -10 9 -1 0 6 11 12 25 12 14 0 25 -4 25 -10 0 -5 -7 -10 -16 -10 -8 0
-12 -4 -9 -10 3 -5 0 -10 -7 -11 -10 0 -10 -2 0 -6 21 -8 13 -23 -13 -23 -14
0 -25 5 -25 11 0 8 -6 7 -17 -2 -15 -12 -16 -12 -9 6 6 16 5 18 -5 8 -7 -7
-17 -13 -22 -13 -4 0 -5 6 -1 13 5 8 2 8 -9 -2 -20 -16 -21 -11 -5 24 11 25
38 35 38 14z m156 -4 c4 -8 1 -23 -6 -33 -7 -9 -1 -5 13 11 14 15 31 27 37 27
5 0 10 -12 11 -27 l1 -28 10 28 c9 25 38 39 38 17 0 -6 8 -5 20 2 25 16 34 5
20 -24 -9 -18 -7 -17 12 6 28 34 47 29 42 -11 l-4 -28 10 27 c9 21 18 26 45
26 l34 0 -16 -33 c-14 -28 -21 -33 -54 -33 -21 -1 -41 4 -44 9 -4 5 -12 6 -18
2 -15 -9 -47 -12 -47 -4 0 4 -18 5 -40 3 -28 -3 -40 0 -40 9 0 10 -3 10 -11 2
-12 -12 -39 -6 -51 11 -5 7 -8 7 -8 -1 0 -7 -4 -13 -10 -13 -15 0 -12 22 6 48
18 25 42 29 50 7z m388 -111 c4 -9 4 -19 1 -22 -3 -3 -5 0 -5 7 0 6 -10 16
-22 21 -23 9 -23 9 -2 9 12 1 25 -6 28 -15z m186 -53 c0 -11 -59 -26 -67 -17
-4 3 3 6 15 6 12 0 22 5 22 10 0 6 7 10 15 10 8 0 15 -4 15 -9z m-940 -101 c0
-5 -4 -10 -9 -10 -6 0 -13 5 -16 10 -3 6 1 10 9 10 9 0 16 -4 16 -10z m1270
-169 c0 -14 -18 -23 -30 -16 -6 4 -8 11 -5 16 8 12 35 12 35 0z m-590 -50 c0
-22 -15 -36 -24 -22 -3 4 -24 11 -46 15 -57 9 -50 20 15 24 49 3 55 1 55 -17z
m1490 -11 c12 -8 11 -10 -7 -10 -12 0 -25 5 -28 10 -8 13 15 13 35 0z m-1631
-23 c-14 -13 -28 -31 -32 -40 -4 -10 -17 -17 -35 -17 -15 0 -34 -6 -41 -12
-11 -11 -12 -9 -6 11 5 15 3 26 -6 32 -9 5 -10 12 -4 18 10 10 91 28 130 30
18 0 18 -2 -6 -22z m228 -3 c-3 -3 -12 -4 -19 -1 -8 3 -5 6 6 6 11 1 17 -2 13
-5z m-662 -53 c-11 -11 -322 -74 -338 -68 -9 3 300 74 333 76 9 1 10 -2 5 -8z
m-362 -78 c-7 -2 -19 -2 -25 0 -7 3 -2 5 12 5 14 0 19 -2 13 -5z m602 -93 c-3
-5 -10 -10 -16 -10 -5 0 -9 5 -9 10 0 6 7 10 16 10 8 0 12 -4 9 -10z m1765 0
c-20 -13 -40 -13 -40 0 0 6 12 10 28 10 21 0 24 -2 12 -10z m-1738 -202 c-17
-8 -26 -8 -34 0 -9 9 -4 12 23 11 32 0 33 -1 11 -11z"/>
<path d="M4994 2358 l-19 -23 23 19 c21 18 27 26 19 26 -2 0 -12 -10 -23 -22z"/>
<path d="M4948 2333 c7 -3 16 -2 19 1 4 3 -2 6 -13 5 -11 0 -14 -3 -6 -6z"/>
<path d="M3516 1935 c-3 -8 -1 -15 3 -15 5 0 11 7 15 15 3 8 1 15 -3 15 -5 0
-11 -7 -15 -15z"/>
<path d="M3256 1934 c-4 -10 -1 -14 6 -12 15 5 23 28 10 28 -5 0 -13 -7 -16
-16z"/>
<path d="M3685 1728 c-4 -14 -54 -210 -62 -245 -5 -22 -2 -23 46 -23 28 0 50
3 50 8 -4 23 4 32 26 32 14 0 25 -4 25 -10 0 -18 26 -11 53 14 17 16 33 22 47
19 16 -4 20 0 21 18 1 17 3 19 6 7 9 -37 33 -11 33 35 0 16 -3 18 -9 8 -5 -8
-11 -9 -15 -3 -3 5 1 12 9 16 24 9 5 36 -25 36 -16 0 -32 5 -35 10 -3 6 -16
10 -28 10 -18 0 -20 -2 -7 -11 12 -9 12 -10 -3 -5 -10 3 -21 6 -23 6 -3 0 -3
4 0 9 3 4 -6 6 -19 3 -15 -2 -25 0 -25 7 0 8 -5 8 -19 0 -20 -13 -51 -6 -51
12 0 6 7 8 16 5 15 -6 15 -4 3 10 -11 14 -11 18 6 30 17 13 17 14 2 14 -10 0
-19 -6 -22 -12z m70 -78 c3 -5 1 -10 -4 -10 -6 0 -11 5 -11 10 0 6 2 10 4 10
3 0 8 -4 11 -10z m-16 -67 c-7 -10 -14 -20 -16 -22 -1 -1 -6 0 -12 4 -13 8 8
34 28 35 11 0 11 -3 0 -17z"/>
<path d="M3730 1736 c0 -10 28 -13 41 -5 10 6 7 9 -13 9 -16 0 -28 -2 -28 -4z"/>
<path d="M3560 1684 c-52 -25 -174 -82 -270 -126 -96 -44 -179 -84 -184 -89
-6 -5 65 -9 174 -9 101 0 181 3 178 6 -3 3 -29 5 -57 6 -52 0 -59 6 -45 42 7
18 54 22 54 6 0 -6 -8 -10 -17 -8 -10 2 -19 -4 -21 -14 -5 -23 35 -12 43 13 5
16 17 18 95 18 86 0 89 -1 78 -19 -7 -11 -19 -21 -28 -24 -12 -3 -11 -4 3 -5
9 0 17 -6 17 -13 0 -27 12 5 36 93 25 95 43 169 40 169 0 0 -44 -21 -96 -46z
m-218 -170 c-2 -10 -5 -25 -7 -31 -5 -15 -41 -17 -50 -3 -3 6 1 10 9 10 10 0
13 6 9 16 -6 17 14 36 32 30 6 -2 9 -12 7 -22z"/>
<path d="M3446 1509 c3 -6 0 -15 -7 -20 -11 -7 -10 -9 3 -9 10 0 22 9 28 20 9
17 8 20 -10 20 -13 0 -19 -4 -14 -11z"/>
<path d="M3476 1475 c-3 -9 0 -15 9 -15 9 0 12 6 9 15 -4 8 -7 15 -9 15 -2 0
-5 -7 -9 -15z"/>
<path d="M3805 1220 c-3 -5 -2 -10 4 -10 5 0 13 5 16 10 3 6 2 10 -4 10 -5 0
-13 -4 -16 -10z"/>
<path d="M4440 1140 c0 -5 5 -10 10 -10 6 0 10 5 10 10 0 6 -4 10 -10 10 -5 0
-10 -4 -10 -10z"/>
<path d="M3718 1133 c7 -3 16 -2 19 1 4 3 -2 6 -13 5 -11 0 -14 -3 -6 -6z"/>
<path d="M3650 1060 c0 -5 5 -10 10 -10 6 0 10 5 10 10 0 6 -4 10 -10 10 -5 0
-10 -4 -10 -10z"/>
<path d="M4175 780 c-3 -6 1 -7 9 -4 18 7 21 14 7 14 -6 0 -13 -4 -16 -10z"/>
<path d="M4493 693 c15 -2 39 -2 55 0 15 2 2 4 -28 4 -30 0 -43 -2 -27 -4z"/>
<path d="M4250 632 c0 -5 7 -15 15 -22 8 -7 15 -8 15 -2 0 5 -7 15 -15 22 -8
7 -15 8 -15 2z"/>
<path d="M4758 540 c-2 -6 -26 -17 -53 -25 -43 -11 -46 -13 -19 -14 39 -1 107
26 99 39 -8 13 -22 13 -27 0z"/>
<path d="M4325 480 c8 -13 35 -13 55 0 11 7 5 10 -23 10 -23 0 -36 -4 -32 -10z"/>
<path d="M3056 1405 c-3 -8 -1 -15 3 -15 5 0 11 7 15 15 3 8 1 15 -3 15 -5 0
-11 -7 -15 -15z"/>
<path d="M3387 1403 c-4 -3 -7 -11 -7 -17 0 -6 5 -5 12 2 6 6 9 14 7 17 -3 3
-9 2 -12 -2z"/>
</g>
</svg>
